# xmcd
#
# Track frame offsets:
#	150
#	20507
#	48395
#	61700
#	79750
#	89950
#	105025
#	125177
#	139717
#	159202
#
# Disc length: 2397 seconds
#
# Revision: 3
# Processed by: cddbd v1.5.1PL0 Copyright (c) Steve Scherf et al.
# Submitted via: EasyCDDAExtractor 6.2.0.3
#
DISCID=7a095b0a,7e09590a
DTITLE=Chris Farlowe And The Thunderbirds - Out Of The Blue
DYEAR=1987
DGENRE=Blues
TTITLE0=I Ain't Superstitious
TTITLE1=Gambler's Blues
TTITLE2=Them That's Got (I Ain't Got Nothing Yet)
TTITLE3=Ain't No Love In The Heart Of The City
TTITLE4=It's All Wrong
TTITLE5=Key To My Kingdom
TTITLE6=The Thrill Is Gone
TTITLE7=Watch Your Step
TTITLE8=All The Way Lover
TTITLE9=(Standing On) Shakey Ground
EXTD=YEAR - 1987\nDATE Records (Line Music)  DACD  9 00087 O
EXTT0=
EXTT1=
EXTT2=
EXTT3=
EXTT4=
EXTT5=
EXTT6=
EXTT7=
EXTT8=
EXTT9=
PLAYORDER=
